<?xml version="1.0" encoding="UTF-8" standalone="no"?>
<!-- Created with Inkscape (http://www.inkscape.org/) -->

<svg
   version="1.1"
   id="svg7585"
   width="30"
   height="20"
   viewBox="0 0 603.45661 964.99187"
   sodipodi:docname="Dolphin5c.svg"
   inkscape:version="1.2.2 (732a01da63, 2022-12-09, custom)"
   xmlns:inkscape="http://www.inkscape.org/namespaces/inkscape"
   xmlns:sodipodi="http://sodipodi.sourceforge.net/DTD/sodipodi-0.dtd"
   xmlns="http://www.w3.org/2000/svg"
   xmlns:svg="http://www.w3.org/2000/svg">
  <defs
     id="defs7589" />
  <sodipodi:namedview
     id="namedview7587"
     pagecolor="#ffffff"
     bordercolor="#000000"
     borderopacity="0.25"
     inkscape:showpageshadow="2"
     inkscape:pageopacity="0.0"
     inkscape:pagecheckerboard="0"
     inkscape:deskcolor="#d1d1d1"
     showgrid="false"
     inkscape:zoom="0.7831022"
     inkscape:cx="280.93396"
     inkscape:cy="475.03378"
     inkscape:window-width="1920"
     inkscape:window-height="1031"
     inkscape:window-x="0"
     inkscape:window-y="25"
     inkscape:window-maximized="1"
     inkscape:current-layer="layer1" />
  <g
     inkscape:groupmode="layer"
     id="layer1"
     inkscape:label="Layer 1"
     transform="translate(-49.470992,-53.50111)">
    <path
       style="fill:#0066ff;stroke-width:1.33333"
       d="m 171.37339,372.86083 c -2.38824,-1.74634 -2.39384,-2.29946 -0.16997,-16.78519 2.76555,-18.01418 6.7526,-34.1258 9.47196,-38.27606 3.26501,-4.98303 2.45755,-5.80216 -5.67537,-5.75735 -14.78231,0.0815 -33.91839,3.5224 -44.33334,7.97177 -40.979848,17.50703 -51.428579,21.33342 -57.333334,20.99576 -5.915475,-0.33826 -6.005887,-0.4145 -6.417879,-5.41117 -0.518645,-6.29019 2.623363,-16.0914 9.061094,-28.26527 12.495856,-23.62989 22.3353,-35.59981 52.023449,-63.28781 7.94304,-7.4079 28.80215,-21.27766 42.77135,-28.43977 14.06488,-7.21117 19.87608,-10.67835 19.8869,-11.86524 0.004,-0.50939 2.92658,-4.10939 6.49322,-8 3.56664,-3.89061 9.80114,-11.00232 13.85442,-15.8038 6.18993,-7.33253 15.07,-15.97809 46.03028,-44.8147 1.69948,-1.58291 5.13273,-3.84737 7.62945,-5.03214 2.49672,-1.18477 6.31979,-3.65215 8.49571,-5.48306 15.05496,-12.66792 65.95644,-39.497777 92.17202,-48.583313 4.76666,-1.651985 10.46666,-4.061013 12.66666,-5.353397 2.2,-1.292383 7.3,-3.0765 11.33334,-3.964703 4.03333,-0.888204 9.43333,-2.126569 12,-2.751922 12.68706,-3.091132 22.94928,-5.215279 32.33333,-6.692583 5.68334,-0.89471 10.33334,-2.209124 10.33334,-2.920918 0,-0.813852 9.27852,-1.052068 25,-0.64185 19.41565,0.506611 27.35669,1.26973 35.55041,3.416326 5.80273,1.520201 10.90273,3.325989 11.33333,4.012862 0.4306,0.686873 4.01639,2.206669 7.96839,3.377323 3.95202,1.170654 9.16198,3.636017 11.57771,5.478583 2.41573,1.842568 4.73227,3.350123 5.14787,3.350123 0.4156,0 1.80562,0.910315 3.08896,2.02292 1.28333,1.112607 4.66164,3.943521 7.50736,6.290921 5.55146,4.579345 12.16409,17.100758 16.26696,30.802458 3.52169,11.76084 0.83348,11.4177 53.51504,6.83107 21.28188,-1.85286 27.36855,-2.00452 28.91572,-0.72048 3.32616,2.76047 4.13139,15.2767 1.44713,22.49406 -3.11285,8.36977 -6.95825,12.24085 -21.54894,21.69277 -19.69601,12.75916 -38.8313,20.04237 -71.76994,27.31686 -8.8,1.94347 -18.06403,4.39118 -20.58672,5.43934 -2.52271,1.04817 -13.32271,7.80724 -24,15.02017 -10.67731,7.21292 -24.51328,15.68539 -30.74662,18.82769 l -11.33333,5.71328 -10.66667,-2.23937 c -5.86666,-1.23164 -18.20852,-2.91469 -27.42634,-3.74012 -24.53919,-2.19737 -40.65499,0.35603 -74.57366,11.81548 -36.35574,12.28281 -62.38811,23.99173 -80.72307,36.30785 -20.69985,13.90471 -51.54006,41.62761 -63.04955,56.67657 -4.6614,6.09491 -32.03463,36.96608 -34.68312,39.11519 -2.66511,2.1626 -5.75627,2.11392 -8.83755,-0.13916 z"
       id="path9717" />
    <path
       style="fill:#e9afc6;stroke-width:1.33333"
       d="m 194.66667,1017.7598 c -5.52977,-0.9019 -14.66325,-6.0375 -18.18857,-10.2271 -7.31743,-8.69626 -16.65112,-32.29525 -20.44625,-51.69562 -3.01511,-15.41288 6.96764,-76.58509 15.63973,-95.83711 4.9596,-11.01029 15.26989,-27.65206 23.58221,-38.06389 4.18487,-5.24188 7.77259,-11.23445 8.25712,-13.79192 1.01338,-5.34869 -1.30192,-13.41129 -9.80502,-34.14418 -9.66748,-23.57196 -24.50623,-67.48334 -25.00646,-74 -1.1553,-15.05063 -2.29984,-23.38191 -3.39312,-24.69923 -0.65264,-0.7864 -1.44177,-6.20077 -1.75361,-12.03196 -0.31184,-5.83118 -1.27415,-12.38424 -2.13844,-14.56236 -2.08969,-5.2662 -4.90485,-19.94504 -8.19039,-42.70645 -1.90306,-13.18405 -2.93009,-29.33818 -3.4967,-55 -0.44123,-19.98333 -1.2619,-36.33333 -1.82368,-36.33333 -2.59036,0 -17.99258,4.46209 -27.96522,8.10165 -6.06289,2.21268 -11.82927,3.71383 -12.81418,3.33588 -0.98491,-0.37794 -1.79075,-0.17672 -1.79075,0.44718 0,0.62388 -5.2206,2.76204 -11.601327,4.75145 -9.871763,3.07785 -12.901924,3.47781 -20.325324,2.68284 -16.713499,-1.78987 -22.791798,-6.54984 -23.793842,-18.63319 -1.858784,-22.41448 14.486459,-49.73858 52.773273,-88.2203 17.18401,-17.27148 36.633,-32.08623 50.58734,-38.53353 3.09343,-1.42926 5.63989,-3.1123 5.65881,-3.74008 0.0189,-0.62779 1.46698,-2.26831 3.2179,-3.64558 1.75092,-1.37728 3.56236,-4.01364 4.0254,-5.85856 0.46305,-1.84493 1.43048,-3.35442 2.14984,-3.35442 0.71936,0 1.30793,-0.75759 1.30793,-1.68354 0,-0.92594 1.5,-2.80998 3.33333,-4.18675 1.83334,-1.37679 3.33506,-3.16919 3.33718,-3.98314 0.003,-0.81394 1.82737,-2.6799 4.05614,-4.14657 2.22878,-1.46667 6.34702,-5.66667 9.15164,-9.33333 2.80464,-3.66667 9.82938,-11.48799 15.61052,-17.38072 5.78115,-5.89272 13.95907,-14.69866 18.17315,-19.56872 9.15659,-10.58196 29.74095,-27.40438 49.00471,-40.04872 14.79,-9.70787 47.50564,-26.33517 51.81668,-26.33517 2.26848,0 7.68141,-2.21932 26.18332,-10.73524 5.06679,-2.33211 23.82587,-8.00286 41.4208,-12.52123 12.716,-3.26547 40.93445,-2.74212 65.75405,1.21951 11.28304,1.80096 21.47912,4.12112 22.66666,5.15789 1.18718,1.03645 4.5585,2.65048 7.49183,3.58675 8.83448,2.81977 13.16389,4.9571 16.61875,8.20434 1.80698,1.69839 4.46108,3.68798 5.898,4.42131 1.43692,0.73333 4.45848,4.83739 6.71458,9.12012 l 4.102,7.78677 14.00001,-0.7201 c 7.7,-0.39607 18.2,-1.71648 23.33333,-2.93426 22.35445,-5.3031 25.68611,-6.06902 32,-7.35648 3.66667,-0.74766 9.96667,-1.66973 14,-2.04904 7.23061,-0.67998 7.37536,-0.6233 10.33333,4.04631 3.25784,5.14299 3.98686,14.00412 1.65642,20.13364 -1.84948,4.86452 -29.50676,32.97081 -39.45532,40.09588 -9.86262,7.06352 -27.41762,15.88848 -35.80954,18.00158 -4.42361,1.11388 -7.54282,3.09752 -11.08008,7.04628 -20.44171,22.81978 -34.15545,32.70231 -55.37711,39.90639 -7.04092,2.39016 -13.16506,4.70914 -13.60921,5.1533 -0.44416,0.44415 2.81337,4.88663 7.23895,9.87216 4.42557,4.98555 7.7882,9.32291 7.47253,9.63859 -0.31568,0.31568 1.434,2.70229 3.88819,5.3036 7.35968,7.80088 28.65958,51.53355 35.95812,73.8287 6.53969,19.9771 8.15961,33.75452 6.15192,52.32187 -1.45475,13.45357 -6.55466,33.11071 -9.32366,35.93713 -2.60053,2.65446 -6.72573,-1.47988 -17.81856,-17.85806 -28.66184,-42.31823 -51.30336,-64.86704 -85.58301,-85.2326 -8.78698,-5.22033 -17.26979,-9.8162 -18.85072,-10.21301 -4.25852,-1.06891 -7.98003,1.99893 -19.79226,16.31578 -5.86666,7.11061 -12.30418,14.42503 -14.30558,16.25425 -2.00142,1.82923 -3.9946,4.44654 -4.42934,5.81623 -0.43472,1.36969 -1.29916,2.17592 -1.92097,1.79161 -0.62181,-0.38429 -2.38297,0.95699 -3.91369,2.98064 -1.53072,2.02366 -4.12876,5.39334 -5.77344,7.48818 -4.70381,5.9913 -15.65059,22.74168 -15.65394,23.9531 -10e-4,0.60238 -0.75304,1.88543 -1.66971,2.85122 -3.96362,4.17601 -6.33333,7.52389 -6.33333,8.94762 0,0.84166 -2.34011,4.62972 -5.20024,8.41794 -11.59721,15.3604 -23.43904,42.20775 -36.67201,83.14142 -5.30755,16.41789 -11.52391,43.11255 -12.15884,52.21323 -0.8008,11.47795 -2.98002,30.01265 -3.76242,31.99999 -0.43306,1.1 -1.06358,5.4866 -1.40118,9.74802 -0.33759,4.2614 -1.29382,8.56737 -2.12495,9.56881 -0.97419,1.17384 -1.39996,7.1854 -1.19824,16.91865 0.17208,8.30383 -0.1658,16.17552 -0.75087,17.49268 -0.65306,1.47026 -0.004,5.84571 1.68006,11.33334 1.50909,4.91617 2.9358,10.1057 3.17048,11.53229 0.55073,3.34804 13.65266,13.39481 19.9469,15.29562 2.67411,0.80756 5.20528,2.3628 5.62482,3.45611 0.41954,1.09329 1.83162,1.99032 3.13798,1.9934 1.30635,0.003 5.32687,1.50307 8.93448,3.33333 3.60762,1.83026 7.35762,3.32775 8.33334,3.32775 0.97572,0 1.77402,0.525 1.77402,1.16667 0,0.64166 1.43356,1.16666 3.18568,1.16666 3.3332,0 12.20658,2.91599 21.79979,7.16388 3.10868,1.37654 6.16568,2.50279 6.79335,2.50279 0.62767,0 2.2272,1.2 3.55452,2.66667 1.32732,1.46666 3.53011,2.66666 4.89511,2.66666 3.45792,0 26.32164,10.84984 36.94512,17.53208 18.0507,11.35403 26.22273,20.78699 30.84845,35.60838 8.85224,28.36362 -5.27471,49.71669 -32.89199,49.71669 -11.79957,0 -23.18612,-4.72327 -41.60374,-17.25772 -28.08194,-19.11164 -41.47574,-20.81914 -66.85962,-8.52354 -14.98911,7.26052 -27.33765,19.88346 -32.79568,33.52439 -1.29451,3.23532 -3.32842,6.85715 -4.51978,8.04851 -1.19137,1.19137 -4.49672,9.33277 -7.34522,18.092 -9.3811,28.84704 -13.58031,36.39904 -22.14506,39.82594 -2.88653,1.155 -5.68609,2.0182 -6.22125,1.9184 -0.53516,-0.1 -2.47301,-0.4263 -4.30635,-0.7253 z"
       id="path7595" />
    <path
       style="fill:#0000ff;stroke-width:1.33333"
       d="m 431.75222,296.65527 c -2.60903,-5.72621 3.24384,-12.65528 10.68973,-12.65528 2.95217,0 7.30596,7.26001 6.28425,10.47912 -0.73674,2.32128 -8.41154,5.52088 -13.2428,5.52088 -1.21397,0 -2.893,-1.50512 -3.73118,-3.34472 z"
       id="path11898" />
    <path
       style="fill:#00ffff;stroke-width:1.33333"
       d="m 498.93335,142.4 c -4.35953,-4.35954 0.51932,-11.73334 7.76335,-11.73334 6.47884,0 9.02798,6.75591 4.19833,11.12668 -2.84212,2.57208 -9.65093,2.9174 -11.96168,0.60666 z"
       id="path14048" />
  </g>
</svg>
